<svg xmlns="http://www.w3.org/2000/svg" viewBox="0 34.92692184448242 49.75212860107422 48.973079681396484" data-asc="1.625" width="49.75212860107422" height="48.973079681396484"><defs/><g fill="#000000"><g transform="translate(0, 0)"><path d="M16.80 52.60Q19.85 46.10 19.85 45.05Q19.85 44.50 20.20 44.10Q20.55 43.70 20.85 43.30Q21.20 42.90 21.20 42.30Q20.80 41.15 18.63 41.82Q16.45 42.50 15.85 43.05Q13.85 44.70 11.48 44.07Q9.10 43.45 9.10 41.25Q9.10 40.40 11.20 38.88Q13.30 37.35 14.55 37.35Q15.30 37.35 17.95 36.22Q20.60 35.10 20.80 35.10Q21.95 34.80 28.60 35.02Q35.25 35.25 38.60 35.75Q41.65 36.15 45.25 39Q49.85 42.30 49.75 45.88Q49.65 49.45 45 56.20Q42.70 59.45 41.35 61.10Q40.05 62.75 39.17 63.42Q38.30 64.10 37.55 64.10Q36.25 64.10 35.10 65.25Q33.10 67.50 27.68 69.45Q22.25 71.40 19.10 71.05Q18.15 71.05 17.48 70.95Q16.80 70.85 16.20 71.25Q15.55 71.60 15.10 72Q14.65 72.35 14.10 73.35Q13.60 74.40 13.10 75.50Q12.65 76.65 11.95 78.55Q11.10 81.05 10.63 82.08Q10.15 83.10 9.68 83.50Q9.20 83.90 8.45 83.90Q6.85 83.90 5.90 82.15Q5.20 80.95 5.45 79.90Q5.70 78.85 7.40 75.25Q9.80 70.10 9.50 69.50Q9.10 69.05 5.60 69.35Q3.10 69.50 2.35 69.28Q1.60 69.05 0.85 67.80Q0 66.50 0 66.03Q0 65.55 0.95 64.30Q2.10 62.65 5.98 61.38Q9.85 60.10 10.90 60.95Q11.60 61.45 12.73 60.88Q13.85 60.30 13.85 59.45Q13.85 58.75 16.80 52.60M43.55 45.05Q43.15 43.05 42.73 42.50Q42.30 41.95 40.80 41.05Q39.10 40.20 35.30 39.85Q29.95 39.35 27.90 40.35Q25.85 41.35 25.85 44.40Q25.85 46.70 25.20 47.07Q24.55 47.45 24.55 48.60Q24.55 50 18.15 62.95Q16.75 65.90 19.65 65.90Q21.60 65.90 24.55 64.65Q35.45 60.20 41.25 51.15Q43 48.70 43.42 47.50Q43.85 46.30 43.55 45.05Z"/></g></g></svg>