<svg xmlns="http://www.w3.org/2000/svg" viewBox="0 32.34791946411133 212.92999267578125 52.01250076293945" data-asc="1.625" width="212.92999267578125" height="52.01250076293945"><defs/><g fill="#000000"><g transform="translate(0, 0)"><path d="M16.80 52.60Q19.85 46.10 19.85 45.05Q19.85 44.50 20.20 44.10Q20.55 43.70 20.85 43.30Q21.20 42.90 21.20 42.30Q20.80 41.15 18.63 41.82Q16.45 42.50 15.85 43.05Q13.85 44.70 11.48 44.07Q9.10 43.45 9.10 41.25Q9.10 40.40 11.20 38.88Q13.30 37.35 14.55 37.35Q15.30 37.35 17.95 36.22Q20.60 35.10 20.80 35.10Q21.95 34.80 28.60 35.02Q35.25 35.25 38.60 35.75Q41.65 36.15 45.25 39Q49.85 42.30 49.75 45.88Q49.65 49.45 45 56.20Q42.70 59.45 41.35 61.10Q40.05 62.75 39.17 63.42Q38.30 64.10 37.55 64.10Q36.25 64.10 35.10 65.25Q33.10 67.50 27.68 69.45Q22.25 71.40 19.10 71.05Q18.15 71.05 17.48 70.95Q16.80 70.85 16.20 71.25Q15.55 71.60 15.10 72Q14.65 72.35 14.10 73.35Q13.60 74.40 13.10 75.50Q12.65 76.65 11.95 78.55Q11.10 81.05 10.63 82.08Q10.15 83.10 9.68 83.50Q9.20 83.90 8.45 83.90Q6.85 83.90 5.90 82.15Q5.20 80.95 5.45 79.90Q5.70 78.85 7.40 75.25Q9.80 70.10 9.50 69.50Q9.10 69.05 5.60 69.35Q3.10 69.50 2.35 69.28Q1.60 69.05 0.85 67.80Q0 66.50 0 66.03Q0 65.55 0.95 64.30Q2.10 62.65 5.98 61.38Q9.85 60.10 10.90 60.95Q11.60 61.45 12.73 60.88Q13.85 60.30 13.85 59.45Q13.85 58.75 16.80 52.60M43.55 45.05Q43.15 43.05 42.73 42.50Q42.30 41.95 40.80 41.05Q39.10 40.20 35.30 39.85Q29.95 39.35 27.90 40.35Q25.85 41.35 25.85 44.40Q25.85 46.70 25.20 47.07Q24.55 47.45 24.55 48.60Q24.55 50 18.15 62.95Q16.75 65.90 19.65 65.90Q21.60 65.90 24.55 64.65Q35.45 60.20 41.25 51.15Q43 48.70 43.42 47.50Q43.85 46.30 43.55 45.05ZM76.53 73.15Q77.58 72.20 78.40 72.38Q79.22 72.55 79.28 73.95Q79.28 74.35 79.15 74.72Q79.03 75.10 78.75 75.42Q78.47 75.75 78.20 76.05Q77.92 76.35 77.53 76.65Q77.13 76.95 76.85 77.15Q76.58 77.35 76.13 77.63Q75.67 77.90 75.53 78.05Q74.33 78.85 73.08 79.35Q72.97 79.40 72.78 79.50Q72.67 79.75 72.38 79.90Q72.08 80.05 71.47 80.20Q70.33 80.85 68.08 81.10Q65.83 81.35 63.98 81.22Q62.13 81.10 61.58 80.80Q61.13 80.50 60.58 79.55Q60.02 78.60 59.63 77.65Q59.23 76.70 59.13 76.20Q58.77 74.75 58.88 73.10Q59.02 71.40 59.42 67.80L59.42 67.10Q59.42 66.85 59.25 66.72Q59.08 66.60 58.77 66.55Q58.48 66.55 57.98 66.55Q57.38 66.55 56.63 66.35Q55.88 66.15 55.15 65.97Q54.42 65.80 53.88 65.80Q53.92 65.80 53.52 67.38Q53.13 68.95 52.50 70.70Q51.88 72.45 51.38 72.75Q49.58 73.80 47.57 74.25Q44.98 74.85 49.92 62.90Q50.02 62.60 50.42 61.65Q50.83 60.70 50.98 60.33Q51.13 59.95 51.45 59.13Q51.77 58.30 51.92 57.77Q52.08 57.25 52.25 56.50Q52.42 55.75 52.50 55.08Q52.58 54.40 52.58 53.70Q52.58 52.90 53.60 50.85Q54.63 48.80 55.23 48.35Q56.02 47.90 57.40 48.02Q58.77 48.15 59.23 48.65Q59.83 49.40 59.23 54.45Q58.77 57.75 58.83 58.70Q58.88 59.70 59.38 60.30Q59.98 60.80 60.42 60.77Q60.88 60.75 62.13 60Q63.98 58.95 64.80 59Q65.63 59.05 66.33 60.15Q66.88 60.95 66.83 61.60Q66.78 62.25 66.08 64.10Q65.08 66.75 64.28 70.15Q63.67 72.85 63.90 74.15Q64.13 75.45 65.53 77.20Q66.13 78.05 66.47 78.15Q66.63 78.20 67 78.08Q67.38 77.95 67.80 77.78Q68.22 77.60 68.38 77.55Q69.92 77.15 70.42 76.90Q74.28 74.90 76.53 73.15ZM87.60 50.90Q86.20 51.25 84.85 49.90Q83.90 48.95 83.85 48.65Q83.80 48.35 84.55 47.75Q85.60 47 87.23 47Q88.85 47 89.45 47.75Q90.10 48.60 89.53 49.60Q88.95 50.60 87.60 50.90M96.50 74.85Q96.85 75.45 96.53 76Q96.20 76.55 94.70 77.80Q92.35 79.80 89.15 81.45Q86.75 82.65 84.18 82.42Q81.60 82.20 79.33 80.95Q77.05 79.70 75.40 77.70Q73.05 74.90 74 70.25Q74.10 69.90 74.40 67.85Q74.70 65.80 75.03 64.22Q75.35 62.65 75.75 62.15Q76.20 61.60 77.23 61.40Q78.25 61.20 79.35 61.38Q80.45 61.55 81.45 62.02Q82.45 62.50 82.83 63.30Q83.20 64.10 82.80 65.10Q81.65 67.50 81.65 68.45Q81.65 69.35 80.65 70.70Q79.80 71.70 79.63 73.13Q79.45 74.55 80.10 75Q80.65 75.20 80.65 76.25Q80.65 77.15 81.95 78.30Q82.85 79.15 83.38 79.25Q83.90 79.35 85.30 79Q87.35 78.25 90.55 75.95Q93.10 74.10 94.43 73.85Q95.75 73.60 96.50 74.85ZM118.08 71.80Q119.18 70.85 120 71.03Q120.83 71.20 120.83 72.65Q120.83 72.95 120.73 73.30Q120.63 73.65 120.45 73.92Q120.28 74.20 120 74.50Q119.73 74.80 119.45 75.03Q119.18 75.25 118.83 75.50Q118.48 75.75 118.23 75.92Q117.98 76.10 117.63 76.35Q117.28 76.60 117.13 76.70Q115.93 77.50 114.63 78.05Q114.53 78.10 114.13 78.30Q112.78 79.70 111.73 80.20Q110.73 80.60 109.08 80.70Q107.38 81.20 106.73 80.60Q106.53 80.60 105.55 80.50Q104.58 80.40 104.23 80.38Q103.88 80.35 103.15 80.35Q102.43 80.35 101.90 80.50Q101.38 80.65 100.88 80.90Q100.23 81.30 99.23 81.25Q98.23 81.20 95.78 80.85Q94.03 80.60 92.83 80.50Q92.58 80.50 92.28 80.50Q91.98 80.50 91.63 80.47Q91.28 80.45 91.08 80.30Q90.53 79.95 89.73 77.60Q89.28 76.25 89.17 74.80Q89.08 74.20 89.17 73.85Q89.42 72.60 89.98 72.30Q90.17 72.20 90.73 72.10Q91.28 72 91.53 71.75Q91.98 71.40 92.28 70.60Q92.58 69.75 92.63 68.85Q92.67 68.05 92.78 67.80Q92.98 67.50 93.55 67.15Q94.13 66.80 94.17 66.75Q94.78 66.25 95.23 65.40Q95.42 64.95 96.03 62.60Q96.58 60.75 96.92 58.80Q97.28 56.90 97.42 55.55Q97.67 52.45 98.10 51.90Q98.53 51.35 99.70 51.38Q100.88 51.40 101.73 52.05Q102.13 52.30 102.45 52.88Q102.78 53.45 102.93 53.90Q103.08 54.35 103.30 55.15Q103.53 55.95 103.63 56.20Q104.53 58.90 104.93 61.20Q105.08 62.10 105.28 63.83Q105.48 65.55 105.73 66.95Q105.98 68.35 106.43 69.55Q107.23 71.75 106.98 73.50Q106.83 74.60 106.83 75.55Q106.83 76.50 107.45 77.10Q108.08 77.70 109.38 77.60Q109.93 77.55 110.48 77.35Q111.03 77.15 111.40 76.95Q111.78 76.75 112.35 76.30Q112.93 75.85 113.13 75.67Q113.33 75.50 113.98 74.90Q114.73 74.20 116.30 73.08Q117.88 71.95 118.08 71.80M99.83 75.20Q102.08 74.70 102.48 72.97Q102.88 71.25 101.63 67.40Q100.38 63.75 100.08 63.75Q99.73 63.75 99.48 65.15Q99.17 66.45 98.73 67.05Q98.13 67.90 96.83 70.67Q95.53 73.45 95.73 73.75Q95.98 74.10 96.73 74.50Q97.48 74.90 98.35 75.10Q99.23 75.30 99.83 75.20ZM144.55 75.10Q145.65 74.20 146.45 74.35Q147.25 74.50 147.30 75.95Q147.30 76.30 147.18 76.67Q147.05 77.05 146.78 77.40Q146.50 77.75 146.25 78.03Q146 78.30 145.58 78.63Q145.15 78.95 144.88 79.13Q144.60 79.30 144.15 79.60Q143.70 79.90 143.55 80Q142.35 80.80 141.10 81.35Q140.30 81.70 138.40 82.33Q136.50 82.95 133.55 83.72Q130.60 84.50 127.80 84.33Q125.00 84.15 123.60 82.75Q123.05 82.20 122.35 81.15Q121.65 80.10 121.13 79.10Q120.60 78.10 120.35 77.45Q119.70 75.70 119.75 72.60Q120.20 63.15 127.85 56.40Q129.65 54.90 130.50 54.58Q131.35 54.25 133.70 54.25Q138 54.25 140.28 56.15Q142.55 58.05 142 61.15Q141.65 62.70 141.33 63.08Q141 63.45 139.85 63.60Q138.30 63.75 136.93 62.97Q135.55 62.20 135.85 61.30Q136.15 60.55 135.53 59.77Q134.90 59 134 59Q132.35 59 128.98 62.47Q125.60 65.95 125.60 67.70Q125.60 68.35 124.90 69.60Q124.15 70.70 124.20 73.40Q124.30 76.05 125.05 77.15Q126.25 78.95 129.08 79.63Q131.90 80.30 134.25 79.85Q135.50 79.65 136.95 79.05Q139.60 78 141.80 76.30Q143.50 75.05 144.15 75.35Q144.20 75.35 144.33 75.25Q144.45 75.15 144.55 75.10ZM156.93 50.90Q155.53 51.25 154.18 49.90Q153.23 48.95 153.18 48.65Q153.13 48.35 153.88 47.75Q154.93 47 156.55 47Q158.18 47 158.78 47.75Q159.43 48.60 158.85 49.60Q158.28 50.60 156.93 50.90M165.83 74.85Q166.18 75.45 165.85 76Q165.53 76.55 164.03 77.80Q161.68 79.80 158.48 81.45Q156.08 82.65 153.50 82.42Q150.93 82.20 148.65 80.95Q146.38 79.70 144.73 77.70Q142.38 74.90 143.33 70.25Q143.43 69.90 143.73 67.85Q144.03 65.80 144.35 64.22Q144.68 62.65 145.08 62.15Q145.53 61.60 146.55 61.40Q147.58 61.20 148.68 61.38Q149.78 61.55 150.78 62.02Q151.78 62.50 152.15 63.30Q152.53 64.10 152.13 65.10Q150.98 67.50 150.98 68.45Q150.98 69.35 149.98 70.70Q149.13 71.70 148.95 73.13Q148.78 74.55 149.43 75Q149.98 75.20 149.98 76.25Q149.98 77.15 151.28 78.30Q152.18 79.15 152.70 79.25Q153.23 79.35 154.63 79Q156.68 78.25 159.88 75.95Q162.43 74.10 163.75 73.85Q165.08 73.60 165.83 74.85ZM169.80 64.45Q168.15 66.45 166.95 68.20Q165.75 69.95 165.85 70.40Q165.85 71.20 167.25 74.05Q168.95 77.30 171.20 77.30Q171.65 77.30 172.13 77.20Q172.60 77.10 173.33 76.85Q174.05 76.60 174.25 76.55Q174.80 76.40 176.05 75.65Q177.60 74.70 179.00 73.60Q180.10 72.65 180.93 72.83Q181.75 73 181.80 74.40Q181.80 74.85 181.58 75.30Q181.35 75.75 181.10 76.08Q180.85 76.40 180.38 76.83Q179.90 77.25 179.60 77.45Q179.30 77.65 178.75 78.03Q178.20 78.40 178.05 78.50Q177.65 78.75 176.85 79.25Q176.05 79.75 175.65 80Q173.95 81.15 172.20 81.35Q170.50 81.60 169.65 81.38Q168.80 81.15 167.15 80.05Q165.05 78.60 163.75 76.90Q162.45 75.20 162.00 73.65Q161.55 72.10 161.55 70.05Q161.55 68 161.80 66.38Q162.05 64.75 162.43 62.38Q162.80 60 162.85 58.30Q162.90 57.65 162.98 56.95Q163.05 56.25 163.13 55.67Q163.20 55.10 163.35 54.30Q163.50 53.50 163.58 53.05Q163.65 52.60 163.90 51.72Q164.15 50.85 164.23 50.50Q164.30 50.15 164.58 49.17Q164.85 48.20 164.93 47.95Q165.00 47.70 165.33 46.63Q165.65 45.55 165.70 45.35Q166.25 43.50 166.65 42.65Q167.10 41.75 167.88 40.88Q168.65 40 169.28 39.45Q169.90 38.90 170.95 38.05Q171.35 37.75 172.33 36.95Q173.30 36.15 173.75 35.82Q174.20 35.50 174.98 34.92Q175.75 34.35 176.48 33.92Q177.20 33.50 178.05 33.10Q179.95 32.15 181.00 32.40Q181.80 32.60 182.35 33.27Q182.90 33.95 183.10 34.80Q183.25 35.40 183.33 36.02Q183.40 36.65 183.35 37.38Q183.30 38.10 183.28 38.60Q183.25 39.10 183.05 39.95Q182.85 40.80 182.78 41.17Q182.70 41.55 182.38 42.47Q182.05 43.40 181.98 43.65Q181.90 43.90 181.53 44.92Q181.15 45.95 181.10 46.10Q179.85 49.45 179.10 50.50Q178.60 51.20 176.20 55.75Q173.75 60.30 172.80 61.20Q171.45 62.45 169.80 64.45M169.15 52.30Q168.60 52.80 167.88 55.70Q167.15 58.60 167.60 59.05Q167.85 59.25 168.43 58.63Q169.00 58 169.83 56.67Q170.65 55.35 171.45 53.50Q173.10 50.20 173.10 49.90Q173.10 49.75 174.65 46.50Q176.20 43.30 176.20 42.60Q176.20 41.15 174.90 42.30Q174.05 42.95 173.25 44.35Q172.00 46.65 170.90 48.05Q169.90 49.35 169.90 50.50Q169.90 51.60 169.15 52.30ZM210.63 75.15Q211.58 74.40 212.25 74.53Q212.93 74.65 212.93 75.85Q212.93 76.10 212.83 76.38Q212.73 76.65 212.60 76.88Q212.48 77.10 212.23 77.35Q211.98 77.60 211.78 77.80Q211.58 78 211.28 78.22Q210.98 78.45 210.78 78.58Q210.58 78.70 210.28 78.90Q209.98 79.10 209.83 79.20Q208.88 79.85 207.83 80.30Q207.73 80.35 206.63 80.90L206.38 81.20Q205.03 82.50 202.48 82.80Q200.88 83 200.00 82.83Q199.13 82.65 197.58 81.95Q195.28 80.85 194.53 80.15Q194.03 79.75 193.68 79.80Q193.33 79.85 192.38 80.60Q189.33 82.80 185.10 83.08Q180.88 83.35 179.58 81.40Q178.78 80.15 178.85 76.55Q178.93 72.95 179.78 71.40Q180.53 70.05 180.93 69.40Q181.38 68.75 181.78 68.20Q182.18 67.60 183.13 66.45Q186.28 62.55 188.08 61.10Q189.48 60 191.38 59.22Q193.28 58.45 195.35 58.20Q197.43 57.95 199.03 58.75Q200.98 59.75 201.43 62.17Q201.88 64.60 201.33 66.88Q200.78 69.15 199.78 71.15Q198.93 73.05 198.50 75.30Q198.08 77.55 198.53 78.25Q199.48 80.15 204.78 78.50Q204.98 78.45 205.18 78.45Q205.48 78.35 205.63 78.25Q208.83 76.60 210.63 75.15M195.53 65.75Q196.08 65.45 196.13 65.25Q196.18 65.05 195.88 64.75Q195.28 64.10 194.18 63.90Q193.08 63.70 192.03 64Q190.98 64.25 188.85 66Q186.73 67.75 185.98 69Q184.98 70.45 184.28 71.60Q183.43 72.80 183.13 75.10Q182.83 77.40 183.38 78.10Q183.88 78.70 185.58 78.70Q187.28 78.70 188.78 78.15Q190.23 77.45 190.93 76.05Q192.13 73.70 192.88 72.25Q194.18 70 194.18 69.20Q194.18 68.70 194.60 68.17Q195.03 67.65 194.83 67.05Q194.58 66.25 195.53 65.75Z"/></g></g></svg>